<?xml version="1.0" encoding="UTF-8" standalone="no"?>
<svg
   version="1.0"
   width="961.49353pt"
   height="1258.6729pt"
   viewBox="0 0 961.49353 1258.6729"
   preserveAspectRatio="xMidYMid"
   id="svg280"
   sodipodi:docname="Logo_monochrome.svg"
   inkscape:version="1.4.2 (ebf0e940d0, 2025-05-08)"
   xmlns:inkscape="http://www.inkscape.org/namespaces/inkscape"
   xmlns:sodipodi="http://sodipodi.sourceforge.net/DTD/sodipodi-0.dtd"
   xmlns="http://www.w3.org/2000/svg"
   xmlns:svg="http://www.w3.org/2000/svg">
  <defs
     id="defs280" />
  <sodipodi:namedview
     id="namedview280"
     pagecolor="#ffffff"
     bordercolor="#000000"
     borderopacity="0.25"
     inkscape:showpageshadow="2"
     inkscape:pageopacity="0.0"
     inkscape:pagecheckerboard="0"
     inkscape:deskcolor="#d1d1d1"
     inkscape:document-units="pt"
     inkscape:zoom="0.37641007"
     inkscape:cx="468.90351"
     inkscape:cy="912.56858"
     inkscape:window-width="1280"
     inkscape:window-height="1440"
     inkscape:window-x="0"
     inkscape:window-y="0"
     inkscape:window-maximized="1"
     inkscape:current-layer="g280" />
  <metadata
     id="metadata1">
Created by potrace 1.15, written by Peter Selinger 2001-2017
</metadata>
  <style
     id="style1">
    path {
      fill: black;
    }
    @media (prefers-color-scheme: dark) {
      path {
        fill: white;
      }
    }
  </style>
  <g
     transform="matrix(0.1,0,0,-0.1,-0.50280352,1279.8292)"
     stroke="none"
     id="g280">
    <path
       d="m 3952.8949,12540.882 c 0.57,-165.633 86.0943,-266.428 -130.8949,-230.882 -154.8461,38.052 -309.9599,54.097 -422,-93 -53,-86 12,-198 177,-307 418.0523,-277.587 -115.8756,-242.258 -82,-477 104.1607,-351.675 1085.7248,-132.435 800.6645,-579.909 C 4138.959,10607.102 3563.8207,10802.549 2755,9785 c -217,-271 -335,-510 -400,-810 -22,-105 -32,-181 -55,-464 -21,-252 -88,-299 -331,-232 -163,44 -190,51 -260,60 -129,18 -223,-20 -340,-138 -83,-84 -141,-166 -217,-311 -59,-110 -145,-320 -192,-467 -67.32284,-239.6513 -235.16355,14.8456 -461.48437,45.4259 -201.68961,27.2522 -264.42278,-74.5235 -270.60928,-163.5945 -10.5995,-116.5946 27.17037,-231.1755 224.97987,-337.7817 274.97926,-122.6672 147.81412,-198.7466 45.10443,-212.8143 C 482.808,6752.1559 170,6708.6419 170,6496 c -0.57237,-124.0376 137.26281,-192.7949 243,-216 427.67016,-46.5343 214.54453,-160.283 288.8011,-423.1365 46.56314,-192.4163 334.2648,-365.0464 452.8769,-217.5283 117.8179,146.5303 83.1431,388.887 374.1342,16.7947 184.6333,-236.0918 597.2334,-307.753 404.4199,406.8268 -153.411,568.5519 158.3288,946.9439 539.7679,237.0433 81,-151 124,-307 198,-730 93,-536 252,-875 559,-1194 97,-101 278.087,-257.3223 392,-335 256.6192,-168.7513 415.7782,-264.1954 675.8237,-421.6925 543.1545,-260.2229 846.2225,-768.2212 536.8732,-1274.1893 C 3789.0931,634.94118 2716.1499,713.12463 1649.7042,1143.4925 710.94252,1522.3331 538.79917,2141.4623 155.39292,2831.6939 91.333162,2947.0182 43.527797,2935.1427 19.512395,2797.0161 -37.338014,2389.7429 45.730375,1864.3187 490,1258 857.13664,759.14259 1728.3887,9.2604878 3560,276 c 881,128 1614,458 2101,943 1024.5076,1024.5076 1053.1796,3036.6947 -631,3849 -434.9486,174.4784 -943.5386,379.6591 -800.0299,930.7153 67.7069,257.5976 336.6455,437.0275 607.8068,585.2068 193.0392,105.4885 619.4023,340.943 751.9989,-271.6709 44.8008,-206.9853 -147.7489,-303.4859 -239.2538,-415.581 -197.696,-242.1809 -40.1826,-533.2528 224.8615,-469.7871 284.2581,68.0665 363.2987,357.2134 449.5274,225.2272 152.5535,-233.5065 383.3056,-456.2586 537.2652,-427.5818 443.336,82.5766 -102.7408,711.4748 254.4971,530.4043 470.1712,-238.3121 562.7824,15.5013 563.114,58.7272 3.6147,471.103 -858.8465,264.3952 -508.8842,517.129 437.5149,315.9622 210.3485,565.801 -42.4915,488.8563 -654.1654,-199.0766 -391.471,606.881 -1034.1854,686.7168 -503.9219,62.5954 20.4041,988.1545 247.8251,538.4463 208.5866,-412.4644 487.0166,-224.9727 620.8237,-426.6236 71.5369,-107.8079 230.0227,-464.138 433.1124,-369.3068 83.9115,39.1818 39.4224,179.3034 49.1814,289.0532 3.6019,40.507 44.4091,68.2667 68.0917,55.5021 86.5353,-46.6414 309.2496,-146.8524 399.4389,-116.4995 95.2144,32.0441 110.0346,131.4997 56.3661,342.1708 -16.5573,64.9943 134.2252,69.1344 185.9346,90.8954 204,86 208.2112,109.4124 225.0139,146.8113 14.6738,32.6605 13.7658,92.5343 -3.5623,138.3719 C 8059.1234,8241.0207 8020.5,8272 7987,8304 c -115.4945,110.3232 -455.7885,80.9893 -492.6238,242.4874 -11.7662,51.5868 -23.4732,94.958 -39.7345,146.8467 C 7438.8858,8745.2501 7388,8808 7321,8843 c -99,50 -238,33 -367,-44 -243.2976,-158.1929 -100.4228,-254.3416 -341.684,-236.028 -111.7281,8.4811 -199.996,6.1748 -146.3181,142.0868 49.4703,125.2583 96.1886,313.8769 218.046,333.2318 259.3725,41.1967 596.992,7.9622 835.5222,6.9782 634.1171,-2.616 1235.6006,275.2808 1811.9232,717.4204 364.2021,279.4068 302.4418,565.5278 139.5899,843.6478 -70.6713,120.693 -104.2289,164.223 -136.8998,202.656 -183.7201,216.128 -466.495,367.172 -703.083,501.233 -401.7432,227.646 -885.9556,423.56 -1222.8156,437.802 -291.91,12.342 -465.4085,-96.446 -643.2808,-215.028 -223,-150 -298,-183 -410,-183 -84,0 -146,24 -319,124 -183,105 -405,156 -680,156 -790.381,0 104.5771,571.037 -335.3138,922.603 -232.8537,186.099 -422.8058,-261.012 -573.2083,-26.432 -161.3129,251.597 -495.5434,293.793 -494.583,14.711 z"
       id="path1"
       sodipodi:nodetypes="sccccsccccccccscssscssssccccsssssccccssssssssssssssssssscszzzcccssssssssscscssss" />
  </g>
</svg>
