<?xml version="1.0" encoding="UTF-8" standalone="no"?>
<svg
   version="1.0"
   width="789.24402pt"
   height="1269.1157pt"
   viewBox="0 0 789.24402 1269.1158"
   preserveAspectRatio="xMidYMid"
   id="svg280"
   sodipodi:docname="logo_Plajta_rotate.svg"
   inkscape:version="1.4.2 (ebf0e940d0, 2025-05-08)"
   xmlns:inkscape="http://www.inkscape.org/namespaces/inkscape"
   xmlns:sodipodi="http://sodipodi.sourceforge.net/DTD/sodipodi-0.dtd"
   xmlns="http://www.w3.org/2000/svg"
   xmlns:svg="http://www.w3.org/2000/svg">
  <defs
     id="defs280" />
  <sodipodi:namedview
     id="namedview280"
     pagecolor="#ffffff"
     bordercolor="#000000"
     borderopacity="0.25"
     inkscape:showpageshadow="2"
     inkscape:pageopacity="0.0"
     inkscape:pagecheckerboard="0"
     inkscape:deskcolor="#d1d1d1"
     inkscape:document-units="pt"
     inkscape:zoom="0.4638827"
     inkscape:cx="-76.527967"
     inkscape:cy="529.22862"
     inkscape:window-width="1536"
     inkscape:window-height="792"
     inkscape:window-x="0"
     inkscape:window-y="0"
     inkscape:window-maximized="1"
     inkscape:current-layer="g280" />
  <metadata
     id="metadata1">
Created by potrace 1.15, written by Peter Selinger 2001-2017
</metadata>
  <g
     transform="matrix(0.1,0,0,-0.1,-21.423891,1239.438)"
     fill="#000000"
     stroke="none"
     id="g280">
    <path
       d="m 1912.8792,12125.218 c -37.2354,-49.735 -41.6575,-119.452 -13.9539,-195.567 18.8112,-51.683 32.6578,-72.183 83.4219,-123.943 34.4404,-33.224 70.166,-78.751 80.8515,-99.338 l 19.4054,-38.696 -44.1656,-16.075 c -23.4923,-8.551 -87.6505,-22.325 -142.1561,-30.457 -53.566,-7.791 -118.1526,-17.464 -142.4153,-20.974 -81.5874,-12.669 -206.8015,-130.607 -222.3271,-210.75 -20.39,-98.941 78.9963,-181.955 271.3257,-227.948 46.4803,-10.751 66.2003,-17.93 82.7257,-21.282 16.4393,-3.334 68.6156,-1.166 87.4692,-1.907 43.4021,-2.294 85.436,-0.829 95.175,1.652 8.4572,3.078 -0.767,-6.664 -19.6437,-22.048 -141.0231,-106.666 -222.6347,-326.858 -159.6374,-432.694 38.8073,-65.689 171.0837,-89.664 294.1059,-83.457 32.0957,1.808 43.0287,0.313 65.2525,-1.345 41.7433,-3.393 126.4924,9.946 169.2798,29.808 54.4483,25.698 86.1286,42.898 107.2573,65.092 19.0434,20.232 47.3163,51.275 65.2534,66.317 l 33.7391,27.179 29.7385,-23.23 c 97.3341,-77.376 172.4819,-245.833 154.3996,-348.191 -13.5633,-70.915 -43.6266,-105.269 -149.4629,-168.267 -218.2506,-128.389 -363.789,-278.2005 -518.1819,-532.332 -72.6707,-119.0334 -335.7295,-691.5307 -383.1046,-833.2826 -111.2258,-328.875 -140.3668,-593.82 -98.8407,-897.959 15.2388,-106.1922 31.8355,-181.0291 107.0142,-454.8285 66.4556,-243.985 19.5711,-311.0659 -231.6896,-331.2174 -168.2187,-14.4028 -195.9846,-17.0595 -264.8413,-32.5437 -127.3767,-27.2061 -202.711,-95.0643 -272.29666,-245.9644 -49.2648,-107.3218 -75.72132,-204.2138 -97.54504,-366.4628 -17.81965,-123.5453 -26.80898,-350.2945 -20.69758,-504.5043 2.58069,-59.7188 0.45945,-109.4431 -4.23901,-111.1532 -3.75877,-1.3681 -90.99125,7.3207 -193.51792,20.0204 -102.52667,12.6997 -211.63119,23.0052 -243.58419,23.0812 -66.46942,1.3474 -132.93195,-20.7146 -162.39753,-53.7869 -48.25599,-51.6175 -75.12365,-202.9321 -51.85938,-290.2406 31.04782,-117.4651 118.37703,-164.429 360.85223,-193.2348 87.91653,-10.5681 134.90057,-19.4775 156.78354,-30.198 28.40038,-9.9218 21.4396,-5.8762 33.4109,-18.7006 17.01119,-32.1188 -28.08025,-95.3546 -88.30349,-125.7875 -101.73901,-50.8643 -180.74575,-123.2517 -219.08316,-202.1202 -33.04472,-64.172 -35.25577,-99.0304 -13.36648,-159.1708 15.73292,-43.2258 25.56169,-55.6111 64.52783,-80.8032 54.43306,-35.5252 162.77062,-52.495 237.69383,-39.0595 29.90087,5.5622 63.32405,6.2979 108.00682,12.5897 44.68276,6.2917 148.03099,23.6562 208.13929,17.4865 34.8078,-4.7351 34.905,-15.1068 32.2622,-34.1598 -15.7745,-105.7741 21.8581,-244.2544 80.7409,-303.7004 55.8909,-54.1498 91.6308,-78.528 165.7113,-102.9425 40.2867,-13.2772 108.518,-21.75 137.2427,-15.5698 24.0926,6.0453 64.1651,12.0921 88.2078,20.7591 34.988,13.5109 48.5141,18.3422 77.0434,39.3678 41.8543,31.1964 78.8271,102.119 114.0794,212.8541 13.9123,46.5666 27.7417,84.5896 30.5608,85.6157 3.7588,1.3681 30.9338,-20.6664 61.4427,-48.9366 41.8751,-39.0318 76.9097,-59.2697 140.4806,-81.8915 85.6156,-30.5607 166.5901,-36.4386 201.5564,-37.9736 14.2603,-0.6261 59.0778,-0.011 87.9509,0.2587 38.0122,-0.2579 62.5837,3.0464 118.0256,23.2256 64.8388,23.5993 74.1493,30.1806 101.5628,68.8911 43.2121,62.5518 49.0886,125.3488 18.3068,209.9211 -33.176,91.1502 -82.6618,154.0163 -228.1137,290.4998 -134.6835,124.4402 -196.9899,204.9878 -228.1137,290.4998 -26.6776,73.296 -25.0677,118.5775 7.2964,172.9242 35.3525,60.7552 82.161,95.8831 141.3651,105.7257 91.3263,15.149 123.6214,14.1333 161.133,-4.1389 72.6497,-20.7368 35.3724,-5.7243 123.1078,-53.9663 85.4387,-48.8483 67.4425,-42.6908 180.9311,-143.9841 127.7601,-114.19 221.5221,-246.0752 435.7338,-618.2557 270.7142,-471.8673 536.0702,-736.0419 933.6603,-930.8037 125.6942,-61.733 349.3257,-146.6925 482.9362,-180.7251 351.2658,-83.2215 541.3775,-117.328 948.1393,-198.7004 131.0301,-25.5523 322.2385,-83.3916 439.2717,-157.2431 155.5225,-99.8286 240.2261,-224.369 291.4634,-432.39 71.7655,-287.8119 52.3635,-550.2763 -61.4326,-854.5466 -95.8695,-254.1143 -319.7859,-580.3741 -569.7821,-832.0561 C 5210.0701,931.88276 4666.2955,560.50401 4284.5247,419.42243 4137.3349,364.78557 4089.1515,356.82584 3914.6071,353.955 c -82.5306,-1.30587 -307.4038,20.0722 -438.6395,41.47789 -157.2948,25.75522 -483.7689,106.99381 -635.4325,158.21056 -266.5859,89.20177 -487.5747,199.15386 -543.3887,249.74434 -67.4748,60.9522 -110.5943,129.69061 -158.6858,205.59221 -123.3415,195.6115 -174.6127,262.8098 -194.7063,283.5039 -23.7888,25.4341 -41.3602,43.0589 -83.7149,86.4701 -111.3989,113.4586 -185.2236,158.3095 -261.3387,130.6059 -33.8289,-12.3128 -34.8515,-21.1984 -19.2672,-140.0349 13.014,-94.2319 124.5091,-388.86696 183.4886,-486.58809 182.4938,-299.65487 439.1334,-557.42435 782.3111,-786.889078 183.9793,-122.460648 513.718,-265.297472 716.8125,-311.629212 58.9344,-12.81519 85.9211,-17.43668 167.2929,-32.75801 53.2674,-10.02959 139.0952,-19.60921 190.4432,-23.26781 52.2877,-3.31658 80.0612,-5.31585 91.9341,-5.59974 43.3566,-0.36138 125.1983,-0.93026 186.2494,-10.20929 44.7436,-5.33235 269.982,-16.66581 428.7175,-2.5221 171.3799,14.48917 324.5567,46.82906 516.4267,110.27897 263.9707,87.564058 647.8697,254.960486 922.8438,402.93088 784.0906,421.6004 1360.0187,982.39978 1651.7692,1604.71448 411.7963,883.1001 240.6794,2005.2485 -407.6322,2669.5767 -45.893,47.147 -104.0053,101.5525 -129.5567,122.0495 -24.2696,19.8994 -81.2695,68.3247 -125.366,107.6121 -45.0361,38.9455 -124.9568,103.4851 -178.5173,142.5397 -50.8505,40.1578 -172.2525,117.8343 -266.6066,159.43 -242.771,108.4077 -458.1553,165.2685 -801.7028,199.8542 -534.1599,52.4709 -681.7987,72.163 -787.749,105.9644 -100.8235,31.4106 -108.8558,35.9363 -145.2654,83.3424 -55.7251,71.237 -114.7184,215.777 -125.3383,303.4309 -20.2137,172.4889 43.644,336.2027 169.2933,426.6308 110.103,80.5129 201.654,203.2257 350.5746,472.3923 110.6661,198.8416 162.332,276.1762 238.3469,353.8598 97.2824,98.1943 99.7594,100.1601 143.4309,53.2687 81.1038,-85.4118 168.8959,-253.5235 247.5605,-469.6528 l 57.5458,-161.0295 -29.9769,-37.5151 c -46.8016,-58.5373 -98.0287,-175.0868 -110.7353,-254.2041 -26.6914,-169.3416 18.2894,-310.4682 121.773,-381.3494 57.0829,-39.8817 115.5695,-54.6128 185.9603,-59.7263 65.344,1.2834 143.3529,13.4122 201.922,46.5981 61.3322,36.1575 117.0988,113.9205 144.7541,201.6711 8.1083,27.4273 25.6965,66.8184 39.7021,86.8145 l 22.715,37.0004 74.6115,-34.0272 c 149.4359,-72.21 267.0765,-131.8441 335.3236,-145.2264 24.2124,-4.7477 91.8728,-19.0467 144.8043,-22.6309 145.5345,-10.4265 221.07,23.467 243.3359,134.7964 9.8115,46.1382 7.3275,67.5819 -12.5131,133.7887 -29.8456,96.6191 -116.841,212.8917 -147.0884,259.3243 -30.2475,46.4325 -52.8335,67.058 -33.9271,93.0383 18.907,25.9806 28.9024,33.7302 67.6993,32.0648 10.62,-0.4559 31.953,-0.076 58.3542,-5.3652 55.7079,-12.7135 122.1902,-1.9467 187.8729,1.3369 44.9855,2.2489 86.7481,-7.0866 131.9162,-11.5804 141.7416,-12.2609 245.702,38.3477 281.6418,135.4988 27.0611,74.7642 -22.7149,136.2028 -76.1134,198.7216 -16.4202,20.0742 -28.6571,39.516 -50.6467,59.7942 -27.1994,25.0833 -81.7094,54.0323 -137.7628,79.3902 -66.9047,28.8576 -154.6519,44.8082 -269.9059,48.6188 -92.1002,1.5962 -191.2746,-18.4496 -189.9284,16.006 -0.2158,21.1391 1.2868,65.0845 35.7705,91.7685 21.3535,16.5236 90.6216,87.2567 119.4826,142.4567 61.5637,120.3117 28.1259,220.5931 -46.5699,315.0734 -21.8645,27.4511 -43.0122,46.6255 -53.7559,57.0552 -41.6158,40.3996 -148.354,126.9138 -240.969,135.7718 -80.5682,7.9218 -215.801,-32.7855 -297.803,-88.172 -98.1461,-66.5834 -242.0573,-229.6373 -278.9403,-315.4257 -7.4277,-17.602 -17.7609,-33.0689 -23.399,-35.121 -5.6382,-2.0521 -43.2362,19.3812 -83.2284,47.3923 -115.4474,80.361 -399.1948,328.9349 -409.0805,337.4361 -31.5601,27.7699 -237.2296,162.0823 -300.7914,194.8757 -193.5421,101.9533 -322.3007,125.3247 -476.5865,87.2603 -45.8756,-11.3765 -99.9529,-23.6097 -119.5171,-25.4096 -33.404,-4.7089 -36.3095,-2.5738 -46.1451,33.2209 -35.7498,127.4596 -12.9863,290.0506 70.2525,497.0006 25.7828,63.6572 33.0413,75.8767 42.87,63.4914 79.6562,-101.9014 197.249,-214.4711 286.8031,-273.3954 56.3988,-38.0023 82.2887,-47.7343 137.8239,-54.1256 37.4218,-3.4064 80.365,-13.0542 111.8801,-18.2446 61.9058,-2.8297 80.5353,-4.0782 104.2019,-5.534 54.0096,-3.3223 97.0497,-9.1073 183.0765,14.7547 89.4436,26.1697 110.2032,30.533 252.2764,52.4465 104.5684,16.7762 118.4555,-7.3812 149.2625,-21.2295 29.2546,-12.4052 90.1917,-53.9917 127.3214,-74.9751 60.9077,-33.3405 349.3002,-123.7081 403.7918,-132.0773 26.6626,-3.0836 78.6228,-17.9765 98.1042,-24.7202 125.3453,-37.3839 243.8295,14.2542 258.8369,113.3641 6.9925,45.1122 -39.011,177.3532 -70.1175,204.3417 -11.0241,9.8219 -18.8872,19.7301 -17.6918,22.2935 3.586,7.6903 123.4253,-35.989 140.1041,-42.0448 8.4463,-3.6855 17.6677,-5.6572 33.8739,-9.2957 10.6851,-2.1157 27.6655,0.224 63.1216,-0.7054 93.724,-3.1335 201.6228,19.1116 249.1153,52.3602 47.1504,34.1882 68.069,79.0481 54.3882,116.6358 -11.9708,32.8893 -76.7807,85.2489 -123.5765,123.162 -20.529,20.6759 -35.8907,32.3055 -50.3838,50.1646 -18.3202,22.5748 -33.0956,34.6535 -48.4381,52.8187 -21.3881,24.6689 -26.2694,30.0404 -20.3376,37.3341 26.0852,38.0295 91.5781,92.5714 135.3969,133.7653 162.2836,150.5857 158.2333,174.0265 161.2315,214.9168 2.6183,35.7095 -18.713,91.662 -50.6734,128.8087 -31.9606,37.1465 -78.8502,53.0476 -121.2746,71.6601 -42.4243,18.6124 -234.6156,30.6022 -402.9104,-15.7536 l -79.1069,-22.4075 c -11.7429,41.1431 -35.1328,53.0859 -63.8332,97.5374 -28.7003,44.4515 -54.5351,81.203 -87.5627,124.4008 -32.5621,43.3962 -101.8408,84.9579 -176.7709,94.9318 -110.1306,13.1246 -234.9335,-50.391 -329.8183,-166.8679 -46.8016,-58.5373 -103.4941,-183.4611 -117.2267,-259.7593 -12.1988,-62.9698 -23.1331,-68.0137 -159.316,-73.9489 -133.0217,-5.8489 -129.1766,-7.6419 -145.1721,56.772 -33.017,131.6467 14.7035,260.7543 134.7113,360.8349 122.7404,104.2679 267.194,166.4223 549.0258,237.0753 301.9073,76.8958 373.7523,98.7885 467.9738,146.9166 120.1045,61.8055 244.213,162.3143 279.8212,225.2913 13.2351,25.037 130.4203,135.796 293.5607,278.18 428.607,372.028 582.6821,545.166 688.3008,766.647 45.7651,96.471 74.7851,192.167 74.7678,250.691 -0.4076,223.329 -77.9425,374.954 -268.5066,518.43 -36.8311,28.098 -57.9806,55.037 -66.2035,62.935 -13.4812,13.261 -30.2464,26.116 -49.2508,40.836 -23.0105,18.789 -85.5597,68.852 -107.9299,83.097 -107.9578,68.045 -410.6525,163.403 -660.4794,206.56 -291.4359,49.296 -859.5975,95.776 -1238.0794,100.62 -133.5365,1.413 -168.0495,-9.021 -340.3449,-105.785 -265.7465,-149.932 -281.8042,-164.29 -448.3371,-390.915 -158.2484,-217.224 -217.4387,-273.886 -322.6843,-312.192 -78.9342,-28.73 -145.4036,-27.382 -342.1724,7.417 -207.8759,36.078 -433.9307,8.074 -692.3462,-85.981 -111.8234,-40.701 -253.641,-60.393 -338.7384,-48.799 -38.1059,5.286 -69.634,12.966 -71.0021,16.725 -8.2084,22.553 33.9638,134.742 98.5158,261.462 40.8145,80.835 86.4382,167.818 82.6447,193.964 -5.9474,46.65 -25.1384,116.228 -82.453,176.394 -51.8443,56.307 -77.5215,70.457 -157.4484,105.559 -104.8668,44.988 -143.5518,66.939 -220.6135,62.303 -127.5529,-9.179 -277.3323,-192.068 -291.9508,-232.899 -14.6185,-40.831 -24.0278,-60.86 -28.1052,-78.88 -4.0775,-18.021 -3.3883,-30.487 -2.3623,-33.306 4.4463,-12.216 -69.3023,47.14 -128.0987,103.425 -122.122,116.242 -303.7763,176.763 -431.9199,142.892 -53.3932,-14.112 -63.9855,-20.096 -85.9335,-50.432 z"
       id="path1"
       sodipodi:nodetypes="cscccsccccsccccccccccccccccccccccssccccccccscczcccsccccsccscscscscccccccccccccccccccccsccccscccccccccccccccccccccccccccccccsccczzscscccscccsccscccscccccccccccsccccccccsccccscscccszzcczcccccccccccccccccccccscscsccccczzscsc" />
  </g>
</svg>
