<?xml version="1.0" encoding="UTF-8" standalone="no"?>
<svg
   version="1.0"
   width="961.49353pt"
   height="1258.6729pt"
   viewBox="0 0 961.49353 1258.6729"
   preserveAspectRatio="xMidYMid"
   id="svg280"
   sodipodi:docname="logo_Plajta_small.svg"
   inkscape:version="1.4 (e7c3feb100, 2024-10-09)"
   xmlns:inkscape="http://www.inkscape.org/namespaces/inkscape"
   xmlns:sodipodi="http://sodipodi.sourceforge.net/DTD/sodipodi-0.dtd"
   xmlns="http://www.w3.org/2000/svg"
   xmlns:svg="http://www.w3.org/2000/svg">
  <defs
     id="defs280" />
  <sodipodi:namedview
     id="namedview280"
     pagecolor="#ffffff"
     bordercolor="#000000"
     borderopacity="0.25"
     inkscape:showpageshadow="2"
     inkscape:pageopacity="0.0"
     inkscape:pagecheckerboard="0"
     inkscape:deskcolor="#d1d1d1"
     inkscape:document-units="pt"
     inkscape:zoom="0.53232422"
     inkscape:cx="724.18272"
     inkscape:cy="772.08585"
     inkscape:window-width="2560"
     inkscape:window-height="1368"
     inkscape:window-x="0"
     inkscape:window-y="0"
     inkscape:window-maximized="1"
     inkscape:current-layer="g280" />
  <metadata
     id="metadata1">
Created by potrace 1.15, written by Peter Selinger 2001-2017
</metadata>
  <style>
    path {
      fill: black;
    }
    @media (prefers-color-scheme: dark) {
      path {
        fill: white;
      }
    }
  </style>
  <g
     transform="matrix(0.1,0,0,-0.1,-0.50280352,1279.8292)"
     stroke="none"
     id="g280">
    <path
       d="m 4010,12778 c -52,-34 -80,-98 -80,-179 0,-55 6,-79 36,-145 21,-43 39,-98 42,-121 l 5,-43 h -47 c -25,0 -90,9 -144,20 -53,11 -117,24 -141,29 -81,16 -239,-52 -281,-122 -53,-86 12,-198 177,-307 40,-26 56.0757,-39.49 70.458,-48.292 14.3074,-8.756 64.0786,-24.564 81.542,-31.708 40,-17 80,-30 90,-31 9,0 -3,-6 -26,-14 -169,-52 -321,-231 -298,-352 14,-75 130.0994,-142.77 247.8251,-179.014 30.7787,-9.278 40.5411,-14.422 60.8575,-23.581 38.0652,-17.466 122.2656,-33.917 169.2659,-29.887 59.9539,5.526 95.6063,10.853 123.0515,24.482 24.8148,12.499 62,32 84,40 l 41,14 20,-32 c 65,-106 78,-290 26,-380 -37,-62 -77,-84 -198,-107 -249,-46 -437,-137 -669,-323 -109,-87 -552,-535 -645,-652 -217,-271 -335,-510 -400,-810 -22,-105 -32,-181 -55,-464 -21,-252 -88,-299 -331,-232 -163,44 -190,51 -260,60 -129,18 -223,-20 -340,-138 -83,-84 -141,-166 -217,-311 -59,-110 -145,-320 -192,-467 -18,-57 -37,-103 -42,-103 -4,0 -83,38 -175,85 -92,47 -191,94 -221,105 -62,24 -132,26 -171,5 -63,-32 -140,-165 -148,-255 -11,-121 55,-195 273,-305 79,-40 138,-75 137,-82 -2,-7 3,-12 9,-10 7,1 14,-8 16,-19 5,-36 -59,-80 -126,-88 -113,-13 -212,-54 -275,-115 -53,-49 -67,-81 -67,-145 0,-46 5,-61 33,-98 39,-52 135,-105 210,-118 30,-5 61.65916,-15.74 105.79913,-25.1101 44.13997,-9.3701 147.19457,-28.4 201.56773,-54.7559 C 751.45592,6183.7795 748,6174 739,6157 c -51,-94 -63,-237 -28,-313 34,-70 59.24662,-105.1318 120.50932,-153.411 33.31597,-26.2553 94.53459,-57.5536 123.64074,-61.5706 24.70727,-2.5594 64.43124,-10.5829 89.98824,-10.6616 C 1082.6373,5619.0863 1097,5619 1131,5629 c 50,15 109,69 180,161 29,39 55,70 58,70 4,0 22,-30 41,-67 26,-51 52,-82 104,-125 70,-58 144.0807,-91.2183 176.4133,-104.6199 13.1862,-5.4656 55.5112,-20.2161 82.7353,-29.8378 C 1808.7802,5520.299 1833,5515 1892,5515 c 69,0 80,3 119,30 62,44 89,101 89,191 0,97 -25,173 -115,351 -84,163 -115,260 -115,351 0,78 17,120 66,160 54,45 110,62 169,51 91,-17 121,-29 150,-59 24,-25 26,-30 10,-24 -11,4 -17,4 -13,0 3,-4 13,-9 22,-10 36,-5 127,-122 199,-256 81,-151 124,-307 198,-730 93,-536 252,-875 559,-1194 97,-101 278.087,-257.3223 392,-335 301.6185,-198.3426 468.5999,-295.4143 823,-511 114.3886,-68.8263 274.2835,-188.5746 359,-298 112,-147 149,-293 126,-506 -31,-295 -139,-535 -350,-782 -177,-206 -499,-436 -820,-587 -480,-225 -1118,-388 -1525,-390 -157,-1 -205,8 -370,65 -78,27 -282,124 -398,189 -139,78 -418,266 -543,366 C 704,1762 533.94423,1940.9038 498.79924,2007.5328 456.24047,2087.8869 439.23137,2167.2276 420,2255 c -49,226 -74.19601,306.6815 -86,333 -13.65522,32.0365 -24.13888,54.6082 -49.09177,109.8875 C 219.03265,2842.6044 165,2910 84,2910 48,2910 44,2902 18,2785 -2,2692 2,2377 24,2265 93,1921 246,1591 490,1258 621,1080 882,833 1057,720 c 50.9971,-32.19907 74.7757,-45.77186 146,-88 46.6246,-27.64324 124,-66 171,-87 48,-21 73.4148,-32.37781 84.4746,-36.70536 C 1499.0928,493.12625 1575.8043,464.60016 1630,435 c 40.2214,-20.31396 248,-108 402,-149 166,-45 321,-67 523,-73 278,-8 696,18 1005,63 881,128 1614,458 2101,943 689,689 912,1802 530,2648 -27,60 -63,131 -80,159 -16,27 -53,92 -81,144 -29,52 -82.027,139.9819 -119,195 -34.049,55.1279 -121.5627,169.6418 -196,241 -191.0525,184.9025 -374,312 -685,462 -484,232 -616,301 -704,369 -84,64 -90,71 -108,128 -28,86 -34,242 -14,328 40,169 156,301 305,343 131,38 259,122 491,324 172,149 247,204 345,251 125,59 128,60 153,1 47,-108 72,-296 72,-526 l -1,-171 -41,-25 c -64,-39 -152,-131 -191,-201 -83,-150 -89,-298 -16,-400 40,-57 89.9211,-90.8464 154.3179,-119.7265 61.8422,-21.143 139.2949,-36.4263 205.6821,-25.2735 70,13 149,67 205,140 17,23 47,54 67,68 l 34,27 58.4739,-57.4937 c 115.7266,-118.9653 205.8765,-215.2385 265.4308,-251.1556 21.1284,-12.7425 79.8178,-49.3204 128.3313,-70.7921 C 6572.4276,5139.9852 6655,5146 6714,5243 c 25,40 30,61 34,130 5,101 -36.9814,240.0147 -49.5238,293.9923 -12.5425,53.9775 -26.712,81.084 -0.06,99.0312 26.6526,17.9472 38.6958,21.8108 74.5833,6.9765 9.8236,-4.0607 30,-11 53,-25 48,-31 114.1554,-43.6208 177,-63 43.0417,-13.2727 79.0928,-36.3288 120,-56 129,-60 244,-48 311,31 51,61 25.2391,135.7578 -3.5564,212.7696 -8.5642,24.4796 -13.4136,46.9342 -27.1415,73.5103 C 7386.3215,5979.1533 7345,6025 7301,6068 c -53,50 -130,95 -237,138 -86,33 -186.0495,48.0828 -173,80 7.0273,19.9381 23.4694,60.7193 65,74 25.7171,8.2238 115,51 161,93 99,92 101.877,197.6701 64,312 -11.157,33.2737 -24.4714,58.5247 -31,72 -25.2886,52.1966 -96,170 -180,210 -73,35 -214,43 -310,19 -115,-29 -306,-133 -370,-201 -13,-14 -28,-25 -34,-25 -6,0 -34,33 -62,73 -81,115 -262.618,445.6303 -269,457 -20.1589,36.8893 -167.4875,233.4448 -216,286 -147,162 -260,228 -418,245 -47,5 -102,12 -121,17 -33,7 -35,10 -32,47 10,132 87,277 236,443 46,51 57,60 62,45 40,-123 112,-269 176,-355 40,-55 61,-73 111,-98 34,-16 82,-34 107,-38 28,-5 56,-19 73,-36 41,-41 103,-64 192,-71 93,-6 114,-9 255,-37 104,-20 108.7873,-47.4502 133,-71 23.2475,-21.6627 66.2862,-81.5829 94,-114 45.8313,-52.1615 285.9241,-235.7153 334.267,-262.217 24,-12.0167 67.733,-43.783 83.733,-56.783 105,-78 234,-70 282,18 22,40 24,180 4,216 -7,13 -11,25 -9,27 6,6 103.6729,-76.0326 117.2746,-87.4276 6.6764,-6.3521 14.6674,-11.3588 28.6518,-20.3207 C 7427.2435,7461.6091 7444,7458 7477,7445 c 87,-35 196,-51 252,-36 56,16 91,51 91,91 0,35 -42.9934,106.3683 -74,158 -12.2194,26.4504 -22.6771,42.6326 -30.188,64.3716 -9.4943,27.4793 -19.2475,43.883 -27.4518,66.2002 -11.661,30.4963 -14.4108,37.2134 -6.3421,42.0384 37.5189,26.8144 117.7165,55.6671 172.9819,79.3898 204,86 208.2112,109.4124 225.0139,146.8113 14.6738,32.6605 13.7658,92.5343 -3.5623,138.3719 C 8059.1234,8241.0207 8020.5,8272 7987,8304 c -33.5,32 -210,109 -384,123 l -82,6 c 3.0371,42.6781 -14.8576,61.9005 -26.6238,113.4874 -11.7662,51.5868 -23.4732,94.958 -39.7345,146.8467 C 7438.8858,8745.2501 7388,8808 7321,8843 c -99,50 -238,33 -367,-44 -64,-39 -160,-137 -199,-204 -33,-55 -45,-56 -175,-15 -127,40 -124,37 -117,103 14,135 103,240 250,293 151,56 308,65 597,35 310,-31 385,-35 490,-22 134,17 285,69 340,116 21,19 169,83 371,161 530,203 734,313 909,485 76,75 136,155 156,210 76,210 55,379 -75,579 -25,39 -35.6603,71.548 -40.6861,81.782 -8.1327,17.072 -19.4901,34.886 -32.3139,55.218 -15.1966,25.526 -56.851,93.963 -73,115 -78.1745,100.865 -330,294 -550,420 -257,146 -775,384 -1129,518 -125,47 -161,49 -356,17 -301,-50 -321,-58 -555,-214 -223,-150 -298,-183 -410,-183 -84,0 -146,24 -319,124 -183,105 -405,156 -680,156 -119,0 -259,30 -335,70 -34,18 -61,36 -61,40 0,24 78,115 182,212 66,62 138.6222,128.133 144,154 10.3666,45.871 16.1298,117.816 -17.15,193.957 -29.4596,70.643 -48.7487,92.722 -111.85,153.043 -83.1556,78.142 -112,112 -186,134 -123,35 -326.298,-85.631 -354,-119 -27.702,-33.369 -43.3942,-48.972 -53.389,-64.511 C 4553.6161,12387.95 4550,12376 4550,12373 c 0,-13 -49,68 -85,141 -75,151 -225,270 -357,282 -55,5 -67,3 -98,-18 z"
       id="path1"
       sodipodi:nodetypes="cscccsccccsccccccccccccccccccccccsscccccccccscczcccsccccsccscscscscccccccccccccccccccccccsccccscccccccccccccccccccccccccccccccsccczzscscccscccsccscccscccccccccccsccccccccsccccscscccszzcczcccccccccccccccccccccscscsccccczzscsc" />
  </g>
</svg>
